<svg width="16" height="16" viewBox="0 0 16 16" fill="none" xmlns="http://www.w3.org/2000/svg">
<g clip-path="url(#clip0_1_51)">
<path d="M14.6667 4.66659H10V3.33325H14.6667V4.66659ZM15.8173 11.3333C15.5227 12.1979 14.4647 13.3333 12.4167 13.3333C10.3673 13.3333 8.70733 12.1806 8.70733 9.54992C8.70733 6.94325 10.2573 5.60325 12.3513 5.60325C14.406 5.60325 15.6607 6.79125 15.9347 8.55392C15.9867 8.89125 16.0073 9.34592 15.998 9.98059H10.6467C10.7333 12.1213 12.9687 12.1886 13.7053 11.3333H15.8173ZM10.6933 8.66659H14.0033C13.9333 7.63525 13.246 7.18725 12.352 7.18725C11.3747 7.18725 10.834 7.69925 10.6933 8.66659ZM4.31067 13.3253H0V3.34725H4.63533C8.286 3.40125 8.35533 6.97659 6.44867 7.95125C8.756 8.79125 8.83333 13.3253 4.31067 13.3253ZM2 7.33325H4.38933C6.06133 7.33325 6.32667 5.33325 4.18133 5.33325H2V7.33325ZM4.26067 9.33325H2V11.3439H4.22733C6.264 11.3439 6.13933 9.33325 4.26067 9.33325Z" fill="#333333"/>
</g>
<defs>
<clipPath id="clip0_1_51">
<rect width="16" height="16" fill="white"/>
</clipPath>
</defs>
</svg>
