<svg width="17" height="16" viewBox="0 0 17 16" fill="none" xmlns="http://www.w3.org/2000/svg">
<path d="M8.58194 1.5C4.99757 1.5 2.08194 4.41563 2.08194 8C2.08194 11.5844 4.99757 14.5 8.58194 14.5C12.1663 14.5 15.0819 11.5844 15.0819 8C15.0819 4.41563 12.1663 1.5 8.58194 1.5ZM12.8804 4.49687C13.6538 5.44219 14.1226 6.64531 14.1335 7.95625C13.9507 7.91719 12.1148 7.54531 10.2679 7.77812C10.2288 7.68281 10.1898 7.5875 10.1491 7.49219C10.0335 7.22188 9.91007 6.95156 9.78038 6.6875C11.8319 5.84844 12.7632 4.65625 12.8804 4.49687ZM8.58194 2.45625C9.99288 2.45625 11.2819 2.98594 12.2616 3.85469C12.1616 3.99688 11.3257 5.12031 9.35225 5.86094C8.44288 4.18906 7.43507 2.81719 7.28038 2.61094C7.70694 2.50781 8.14288 2.45625 8.58194 2.45625ZM6.221 2.98438C6.36788 3.18438 7.36007 4.56094 8.27882 6.19531C5.68194 6.88438 3.39444 6.875 3.146 6.87187C3.50694 5.14844 4.66788 3.71719 6.221 2.98438ZM3.03038 8.00781C3.03038 7.95156 3.03194 7.89375 3.0335 7.8375C3.27569 7.84219 5.96631 7.87656 8.73975 7.04688C8.89913 7.35781 9.05069 7.67344 9.18975 7.98906C9.11632 8.00937 9.04288 8.03125 8.971 8.05469C6.10694 8.98281 4.5835 11.5062 4.45694 11.7203C3.571 10.7359 3.03038 9.43437 3.03038 8.00781ZM8.58194 13.5594C7.29757 13.5594 6.11475 13.1219 5.17413 12.3875C5.27413 12.1828 6.39756 10.0125 9.52882 8.92031L9.56475 8.90781C10.3444 10.9328 10.6663 12.6312 10.7491 13.1187C10.0642 13.4115 9.32679 13.5614 8.58194 13.5594ZM11.6835 12.6109C11.6273 12.2734 11.3319 10.6484 10.6054 8.65312C12.346 8.375 13.8741 8.83125 14.0632 8.89062C13.8163 10.4344 12.9304 11.7687 11.6835 12.6109Z" fill="#333333"/>
</svg>
