<svg width="16" height="16" viewBox="0 0 16 16" fill="none" xmlns="http://www.w3.org/2000/svg">
<path d="M7.99421 5.91296C6.84734 5.91296 5.9114 6.8489 5.9114 7.99578C5.9114 9.14265 6.84734 10.0786 7.99421 10.0786C9.14109 10.0786 10.077 9.14265 10.077 7.99578C10.077 6.8489 9.14109 5.91296 7.99421 5.91296ZM14.2411 7.99578C14.2411 7.13328 14.2489 6.27859 14.2005 5.41765C14.152 4.41765 13.9239 3.53015 13.1927 2.7989C12.4598 2.06609 11.5739 1.83953 10.5739 1.79109C9.7114 1.74265 8.85671 1.75046 7.99578 1.75046C7.13328 1.75046 6.27859 1.74265 5.41765 1.79109C4.41765 1.83953 3.53015 2.06765 2.7989 2.7989C2.06609 3.53171 1.83953 4.41765 1.79109 5.41765C1.74265 6.28015 1.75046 7.13484 1.75046 7.99578C1.75046 8.85671 1.74265 9.71296 1.79109 10.5739C1.83953 11.5739 2.06765 12.4614 2.7989 13.1927C3.53171 13.9255 4.41765 14.152 5.41765 14.2005C6.28015 14.2489 7.13484 14.2411 7.99578 14.2411C8.85828 14.2411 9.71296 14.2489 10.5739 14.2005C11.5739 14.152 12.4614 13.9239 13.1927 13.1927C13.9255 12.4598 14.152 11.5739 14.2005 10.5739C14.2505 9.71296 14.2411 8.85828 14.2411 7.99578ZM7.99421 11.2005C6.22078 11.2005 4.78953 9.76921 4.78953 7.99578C4.78953 6.22234 6.22078 4.79109 7.99421 4.79109C9.76765 4.79109 11.1989 6.22234 11.1989 7.99578C11.1989 9.76921 9.76765 11.2005 7.99421 11.2005ZM11.3302 5.40828C10.9161 5.40828 10.5817 5.0739 10.5817 4.65984C10.5817 4.24578 10.9161 3.9114 11.3302 3.9114C11.7442 3.9114 12.0786 4.24578 12.0786 4.65984C12.0787 4.75816 12.0594 4.85554 12.0219 4.9464C11.9843 5.03726 11.9292 5.11982 11.8597 5.18934C11.7901 5.25886 11.7076 5.31399 11.6167 5.35156C11.5259 5.38913 11.4285 5.4084 11.3302 5.40828Z" fill="#333333"/>
</svg>
