<svg width="16" height="16" viewBox="0 0 16 16" fill="none" xmlns="http://www.w3.org/2000/svg">
<g clip-path="url(#clip0_1_39)">
<path d="M4.134 14H1.2315V4.653H4.134V14ZM2.681 3.378C1.753 3.378 1 2.609 1 1.681C1 1.23517 1.1771 0.807602 1.49235 0.492353C1.8076 0.177105 2.23517 0 2.681 0C3.12683 0 3.5544 0.177105 3.86965 0.492353C4.1849 0.807602 4.362 1.23517 4.362 1.681C4.362 2.609 3.609 3.378 2.681 3.378ZM14.997 14H12.101V9.45C12.101 8.3655 12.079 6.975 10.592 6.975C9.083 6.975 8.8515 8.153 8.8515 9.372V14H5.952V4.653H8.7355V5.928H8.776C9.1635 5.1935 10.11 4.4185 11.522 4.4185C14.4595 4.4185 14.9995 6.353 14.9995 8.8655V14H14.997Z" fill="#333333"/>
</g>
<defs>
<clipPath id="clip0_1_39">
<rect width="16" height="16" fill="white"/>
</clipPath>
</defs>
</svg>
