<svg width="16" height="16" viewBox="0 0 16 16" fill="none" xmlns="http://www.w3.org/2000/svg">
<path d="M15.762 3.29122C15.2054 3.53789 14.6074 3.70456 13.9787 3.77989C14.6274 3.39175 15.1127 2.78087 15.344 2.06122C14.7346 2.42321 14.0676 2.67802 13.372 2.81456C12.9043 2.31513 12.2847 1.98411 11.6096 1.87287C10.9344 1.76164 10.2414 1.87642 9.63819 2.19939C9.03495 2.52236 8.55521 3.03546 8.27347 3.65902C7.99172 4.28259 7.92372 4.98172 8.08003 5.64789C6.84515 5.58589 5.63711 5.26492 4.53431 4.70583C3.43151 4.14673 2.45859 3.362 1.67869 2.40256C1.41203 2.86256 1.25869 3.39589 1.25869 3.96389C1.2584 4.47522 1.38432 4.97872 1.62528 5.42971C1.86624 5.8807 2.2148 6.26525 2.64003 6.54922C2.14688 6.53353 1.66461 6.40028 1.23336 6.16055V6.20055C1.23331 6.91772 1.48138 7.61281 1.93548 8.16789C2.38958 8.72296 3.02174 9.10384 3.7247 9.24589C3.26722 9.3697 2.78759 9.38794 2.32203 9.29922C2.52036 9.9163 2.90669 10.4559 3.42694 10.8425C3.94719 11.2291 4.57531 11.4433 5.22336 11.4552C4.12325 12.3188 2.76462 12.7873 1.36603 12.7852C1.11828 12.7853 0.870746 12.7708 0.624695 12.7419C2.04435 13.6547 3.69692 14.1391 5.3847 14.1372C11.098 14.1372 14.2214 9.40522 14.2214 5.30122C14.2214 5.16789 14.218 5.03322 14.212 4.89989C14.8196 4.46054 15.344 3.91649 15.7607 3.29322L15.762 3.29122Z" fill="#333333"/>
</svg>
