<svg width="20" height="19" viewBox="0 0 20 19" fill="none" xmlns="http://www.w3.org/2000/svg">
<path d="M9.07069 0.612343C9.41444 -0.204115 10.5852 -0.204114 10.9289 0.612346L12.9577 5.43123C13.1027 5.77543 13.4304 6.01061 13.8065 6.0404L19.0725 6.45748C19.9647 6.52814 20.3265 7.62813 19.6467 8.2034L15.6346 11.5987C15.348 11.8412 15.2228 12.2218 15.3104 12.5843L16.5361 17.661C16.7438 18.5211 15.7967 19.201 15.0328 18.7401L10.5244 16.0196C10.2023 15.8252 9.79732 15.8252 9.47529 16.0196L4.96681 18.7401C4.20293 19.201 3.25577 18.5211 3.46345 17.661L4.68924 12.5843C4.77679 12.2218 4.65164 11.8412 4.36507 11.5987L0.352879 8.2034C-0.326901 7.62813 0.0348848 6.52814 0.927108 6.45748L6.19317 6.0404C6.56932 6.01061 6.89697 5.77543 7.04188 5.43123L9.07069 0.612343Z" fill="#D4E9F7"/>
</svg>
