<svg width="20" height="19" viewBox="0 0 20 19" fill="none" xmlns="http://www.w3.org/2000/svg">
<path d="M9.07082 0.612343C9.41456 -0.204115 10.5853 -0.204114 10.9291 0.612346L12.9578 5.43123C13.1028 5.77543 13.4305 6.01061 13.8066 6.0404L19.0726 6.45748C19.9648 6.52814 20.3266 7.62813 19.6468 8.2034L15.6347 11.5987C15.3482 11.8412 15.2229 12.2218 15.3105 12.5843L16.5363 17.661C16.7439 18.5211 15.7968 19.201 15.0329 18.7401L10.5245 16.0196C10.2024 15.8252 9.79744 15.8252 9.47542 16.0196L4.96693 18.7401C4.20305 19.201 3.25589 18.5211 3.46357 17.661L4.68936 12.5843C4.77692 12.2218 4.65176 11.8412 4.36519 11.5987L0.353001 8.2034C-0.326779 7.62813 0.0350068 6.52814 0.92723 6.45748L6.19329 6.0404C6.56944 6.01061 6.89709 5.77543 7.04201 5.43123L9.07082 0.612343Z" fill="#57B9FB"/>
</svg>
