<svg width="18" height="18" viewBox="0 0 18 18" fill="none" xmlns="http://www.w3.org/2000/svg">
<path d="M9.15481 0.578613C4.58876 0.578613 0.886844 4.25158 0.886844 8.78282C0.886844 10.3328 1.32038 11.7824 2.07327 13.0192L0.581055 17.4207L5.15865 15.9665C6.34316 16.6163 7.70545 16.987 9.15481 16.987C13.7215 16.987 17.4232 13.3135 17.4232 8.78282C17.4232 4.25158 13.7215 0.578613 9.15481 0.578613ZM13.2662 11.8985C13.0717 12.3808 12.192 12.8208 11.8038 12.8411C11.4161 12.8617 11.405 13.1416 9.29102 12.2233C7.1773 11.3047 5.9056 9.07125 5.80534 8.92741C5.705 8.7841 4.98654 7.76023 5.0253 6.72985C5.06433 5.69929 5.62857 5.21309 5.82996 5.01087C6.03113 4.80835 6.26177 4.77207 6.4026 4.76978C6.56906 4.76707 6.67688 4.76482 6.80008 4.76937C6.92316 4.77403 7.10805 4.74361 7.26812 5.16933C7.42812 5.595 7.81109 6.64125 7.86008 6.74786C7.90902 6.85459 7.93933 6.97816 7.86391 7.11519C7.78827 7.25252 7.74955 7.33831 7.63981 7.45666C7.52948 7.575 7.40771 7.7214 7.30929 7.81188C7.19951 7.91207 7.08485 8.02136 7.20027 8.23553C7.3156 8.44955 7.71354 9.15117 8.31978 9.72937C9.09891 10.4726 9.77083 10.7192 9.9776 10.8315C10.1849 10.9444 10.3087 10.9319 10.4372 10.7966C10.5652 10.6613 10.9876 10.2046 11.1363 10.0008C11.285 9.79632 11.4243 9.83636 11.6153 9.9132C11.8062 9.99034 12.8243 10.5356 13.0316 10.6482C13.2388 10.7606 13.3772 10.8185 13.4267 10.9076C13.4762 10.9971 13.4606 11.4163 13.2662 11.8985Z" fill="#333333"/>
</svg>
