<svg width="17" height="16" viewBox="0 0 17 16" fill="none" xmlns="http://www.w3.org/2000/svg">
<path d="M8.37313 4.79548C6.59969 4.79548 5.16844 6.22673 5.16844 8.00017C5.16844 9.77361 6.59969 11.2049 8.37313 11.2049C10.1466 11.2049 11.5778 9.77361 11.5778 8.00017C11.5778 6.22673 10.1466 4.79548 8.37313 4.79548ZM8.37313 10.083C7.22625 10.083 6.29031 9.14704 6.29031 8.00017C6.29031 6.8533 7.22625 5.91736 8.37313 5.91736C9.52 5.91736 10.4559 6.8533 10.4559 8.00017C10.4559 9.14704 9.52 10.083 8.37313 10.083ZM11.7091 3.91736C11.295 3.91736 10.9606 4.25173 10.9606 4.6658C10.9606 5.07986 11.295 5.41423 11.7091 5.41423C12.1231 5.41423 12.4575 5.08142 12.4575 4.6658C12.4576 4.56748 12.4384 4.4701 12.4008 4.37924C12.3632 4.28838 12.3081 4.20582 12.2386 4.1363C12.169 4.06677 12.0865 4.01165 11.9956 3.97408C11.9048 3.93651 11.8074 3.91724 11.7091 3.91736ZM14.62 8.00017C14.62 7.13767 14.6278 6.28298 14.5794 5.42205C14.5309 4.42205 14.3028 3.53455 13.5716 2.8033C12.8388 2.07048 11.9528 1.84392 10.9528 1.79548C10.0903 1.74705 9.23563 1.75486 8.37469 1.75486C7.51219 1.75486 6.6575 1.74705 5.79656 1.79548C4.79656 1.84392 3.90906 2.07205 3.17781 2.8033C2.445 3.53611 2.21843 4.42205 2.17 5.42205C2.12156 6.28455 2.12937 7.13923 2.12937 8.00017C2.12937 8.86111 2.12156 9.71736 2.17 10.5783C2.21843 11.5783 2.44656 12.4658 3.17781 13.197C3.91062 13.9299 4.79656 14.1564 5.79656 14.2049C6.65906 14.2533 7.51375 14.2455 8.37469 14.2455C9.23719 14.2455 10.0919 14.2533 10.9528 14.2049C11.9528 14.1564 12.8403 13.9283 13.5716 13.197C14.3044 12.4642 14.5309 11.5783 14.5794 10.5783C14.6294 9.71736 14.62 8.86267 14.62 8.00017ZM13.245 11.6845C13.1309 11.9689 12.9934 12.1814 12.7731 12.4002C12.5528 12.6205 12.3419 12.758 12.0575 12.872C11.2356 13.1986 9.28406 13.1252 8.37313 13.1252C7.46219 13.1252 5.50906 13.1986 4.68719 12.8736C4.40281 12.7595 4.19031 12.622 3.97156 12.4017C3.75125 12.1814 3.61375 11.9705 3.49968 11.6861C3.17468 10.8627 3.24812 8.91111 3.24812 8.00017C3.24812 7.08923 3.17468 5.13611 3.49968 4.31423C3.61375 4.02986 3.75125 3.81736 3.97156 3.59861C4.19187 3.37986 4.40281 3.2408 4.68719 3.12673C5.50906 2.80173 7.46219 2.87517 8.37313 2.87517C9.28406 2.87517 11.2372 2.80173 12.0591 3.12673C12.3434 3.2408 12.5559 3.3783 12.7747 3.59861C12.995 3.81892 13.1325 4.02986 13.2466 4.31423C13.5716 5.13611 13.4981 7.08923 13.4981 8.00017C13.4981 8.91111 13.5716 10.8627 13.245 11.6845Z" fill="#333333"/>
</svg>
