<svg width="17" height="16" viewBox="0 0 17 16" fill="none" xmlns="http://www.w3.org/2000/svg">
<path d="M4.17582 6.3048C4.17582 5.78613 4.26649 5.29613 4.44516 4.8388C4.61586 4.3946 4.86948 3.98692 5.19249 3.63747C5.51485 3.29261 5.88374 2.9944 6.28849 2.75147C6.70377 2.50024 7.15336 2.3107 7.62316 2.1888C8.09863 2.06395 8.58823 2.00098 9.07982 2.00147C9.83916 2.00147 10.5458 2.16213 11.2012 2.48213C11.8479 2.7963 12.3984 3.27843 12.7952 3.87813C13.2045 4.48813 13.4078 5.17813 13.4078 5.94747C13.4078 6.4088 13.3625 6.86013 13.2698 7.30147C13.1788 7.74256 13.0342 8.17085 12.8392 8.5768C12.6532 8.96977 12.4102 9.33305 12.1178 9.6548C11.824 9.97144 11.4682 10.2242 11.0725 10.3975C10.6429 10.5857 10.1782 10.6805 9.70916 10.6755C9.38316 10.6755 9.05782 10.5988 8.73649 10.4448C8.41516 10.2915 8.18449 10.0808 8.04582 9.8108C7.99716 9.99813 7.93049 10.2688 7.84182 10.6228C7.75649 10.9761 7.69916 11.2041 7.67382 11.3075C7.64716 11.4101 7.59782 11.5815 7.52582 11.8188C7.47699 11.9944 7.41436 12.1658 7.33849 12.3315L7.10916 12.7808C7.00998 12.9736 6.8991 13.1602 6.77716 13.3395C6.65649 13.5141 6.50716 13.7228 6.32916 13.9628L6.22982 13.9981L6.16382 13.9261C6.09249 13.1708 6.05582 12.7188 6.05582 12.5695C6.05582 12.1275 6.10849 11.6315 6.21249 11.0808C6.31449 10.5308 6.47582 9.83947 6.69249 9.00813C6.90916 8.17747 7.03316 7.6888 7.06649 7.54413C6.91382 7.2328 6.83649 6.82613 6.83649 6.32613C6.83649 5.9268 6.96116 5.5528 7.21116 5.2008C7.46182 4.85013 7.77849 4.6748 8.16249 4.6748C8.45649 4.6748 8.68449 4.77213 8.84782 4.96747C9.01182 5.16213 9.09182 5.40747 9.09182 5.7068C9.09182 6.02413 8.98649 6.48347 8.77449 7.08413C8.56249 7.68547 8.45716 8.13413 8.45716 8.43213C8.45716 8.73413 8.56516 8.9868 8.78116 9.1848C8.99432 9.3829 9.27622 9.49026 9.56716 9.48413C9.83116 9.48413 10.0758 9.42413 10.3032 9.30347C10.5269 9.18634 10.7206 9.0191 10.8692 8.8148C11.1926 8.371 11.4232 7.86649 11.5472 7.33147C11.6112 7.05013 11.6605 6.7828 11.6912 6.53147C11.7238 6.2788 11.7378 6.04013 11.7378 5.81347C11.7378 4.98213 11.4738 4.33413 10.9492 3.87013C10.4218 3.40613 9.73516 3.17547 8.89049 3.17547C7.92982 3.17547 7.12649 3.48613 6.48316 4.10947C5.83916 4.7308 5.51516 5.5208 5.51516 6.4788C5.51516 6.69013 5.54716 6.89413 5.60782 7.09147C5.66716 7.28813 5.73182 7.4448 5.80182 7.5608C5.87116 7.6748 5.93649 7.78613 5.99582 7.8888C6.05582 7.99147 6.08716 8.0648 6.08716 8.1088C6.08716 8.24347 6.05182 8.4188 5.98049 8.63547C5.90649 8.85213 5.81916 8.96013 5.71382 8.96013C5.70382 8.96013 5.66249 8.9528 5.59049 8.93747C5.34113 8.86302 5.11594 8.72386 4.93782 8.53413C4.74878 8.3375 4.59959 8.10614 4.49849 7.8528C4.39768 7.60037 4.31915 7.3396 4.26382 7.07347C4.20404 6.82165 4.1745 6.56361 4.17582 6.3048Z" fill="#333333"/>
</svg>
