<svg width="20" height="19" viewBox="0 0 20 19" fill="none" xmlns="http://www.w3.org/2000/svg">
<path d="M9.07072 0.612343C9.41447 -0.204115 10.5852 -0.204114 10.929 0.612346L12.9577 5.43123C13.1027 5.77543 13.4304 6.01061 13.8065 6.0404L19.0725 6.45748C19.9647 6.52814 20.3265 7.62813 19.6467 8.2034L15.6346 11.5987C15.3481 11.8412 15.2228 12.2218 15.3104 12.5843L16.5362 17.661C16.7438 18.5211 15.7967 19.201 15.0328 18.7401L10.5244 16.0196C10.2023 15.8252 9.79735 15.8252 9.47532 16.0196L4.96684 18.7401C4.20296 19.201 3.2558 18.5211 3.46348 17.661L4.68927 12.5843C4.77682 12.2218 4.65167 11.8412 4.3651 11.5987L0.35291 8.2034C-0.32687 7.62813 0.0349153 6.52814 0.927138 6.45748L6.1932 6.0404C6.56935 6.01061 6.897 5.77543 7.04191 5.43123L9.07072 0.612343Z" fill="#AEDBF9"/>
</svg>
